<svg width="18" height="18" viewBox="0 0 18 18" fill="none" xmlns="http://www.w3.org/2000/svg">
<path d="M16.2973 13.5L10.2973 3C10.1665 2.76915 9.97677 2.57714 9.74751 2.44355C9.51825 2.30996 9.25766 2.23958 8.99232 2.23958C8.72698 2.23958 8.46639 2.30996 8.23713 2.44355C8.00787 2.57714 7.81815 2.76915 7.68732 3L1.68732 13.5C1.55508 13.729 1.48574 13.9889 1.48633 14.2534C1.48691 14.5178 1.5574 14.7774 1.69065 15.0059C1.82391 15.2343 2.01518 15.4234 2.24509 15.5541C2.475 15.6848 2.73538 15.7524 2.99982 15.75H14.9998C15.263 15.7497 15.5214 15.6802 15.7493 15.5485C15.9771 15.4167 16.1662 15.2273 16.2977 14.9993C16.4292 14.7714 16.4983 14.5128 16.4983 14.2496C16.4982 13.9864 16.4289 13.7279 16.2973 13.5Z" stroke="#C8C9D6" stroke-width="1.5" stroke-linecap="round" stroke-linejoin="round"/>
<path d="M9 6.75V9.75" stroke="#C8C9D6" stroke-width="1.5" stroke-linecap="round" stroke-linejoin="round"/>
<path d="M9 12.75H9.0075" stroke="#C8C9D6" stroke-width="1.5" stroke-linecap="round" stroke-linejoin="round"/>
</svg>
