<svg width="28" height="28" viewBox="0 0 28 28" fill="none" xmlns="http://www.w3.org/2000/svg">
<path d="M0 10C0 4.47715 4.47715 0 10 0H18C23.5228 0 28 4.47715 28 10V18C28 23.5228 23.5228 28 18 28H10C4.47715 28 0 23.5228 0 18V10Z" fill="#464750"/>
<g clip-path="url(#clip0_14_3112)">
<path d="M17.7924 15.0833C18.5995 14.2925 19.4174 13.3446 19.4174 12.1042C19.4174 11.314 19.1035 10.5563 18.5448 9.99758C17.9861 9.43888 17.2283 9.125 16.4382 9.125C15.4848 9.125 14.8132 9.39583 14.0007 10.2083C13.1882 9.39583 12.5165 9.125 11.5632 9.125C10.773 9.125 10.0153 9.43888 9.45656 9.99758C8.89786 10.5563 8.58398 11.314 8.58398 12.1042C8.58398 13.35 9.39648 14.2979 10.209 15.0833L14.0007 18.875L17.7924 15.0833Z" stroke="#C8C9D6" stroke-width="1.08333" stroke-linecap="round" stroke-linejoin="round"/>
</g>
<defs>
<clipPath id="clip0_14_3112">
<rect width="13" height="13" fill="white" transform="translate(7.5 7.5)"/>
</clipPath>
</defs>
</svg>
