<svg width="8" height="8" viewBox="0 0 8 8" fill="none" xmlns="http://www.w3.org/2000/svg">
<mask id="path-1-inside-1_16_4329" fill="white">
<path d="M0 2C0 0.895431 0.895431 0 2 0H6C7.10457 0 8 0.895431 8 2V6C8 7.10457 7.10457 8 6 8H2C0.895431 8 0 7.10457 0 6V2Z"/>
</mask>
<path d="M2 0V0.8H6V0V-0.8H2V0ZM8 2H7.2V6H8H8.8V2H8ZM6 8V7.2H2V8V8.8H6V8ZM0 6H0.8V2H0H-0.8V6H0ZM2 8V7.2C1.33726 7.2 0.8 6.66274 0.8 6H0H-0.8C-0.8 7.5464 0.453603 8.8 2 8.8V8ZM8 6H7.2C7.2 6.66274 6.66274 7.2 6 7.2V8V8.8C7.5464 8.8 8.8 7.5464 8.8 6H8ZM6 0V0.8C6.66274 0.8 7.2 1.33726 7.2 2H8H8.8C8.8 0.453603 7.5464 -0.8 6 -0.8V0ZM2 0V-0.8C0.453603 -0.8 -0.8 0.453603 -0.8 2H0H0.8C0.8 1.33726 1.33726 0.8 2 0.8V0Z" fill="white" fill-opacity="0.5" mask="url(#path-1-inside-1_16_4329)"/>
</svg>
