<svg width="18" height="18" viewBox="0 0 18 18" fill="none" xmlns="http://www.w3.org/2000/svg">
<path d="M16.2976 13.5002L10.2976 3.00017C10.1667 2.76932 9.97702 2.57731 9.74776 2.44372C9.5185 2.31013 9.25791 2.23975 8.99257 2.23975C8.72723 2.23975 8.46664 2.31013 8.23738 2.44372C8.00812 2.57731 7.8184 2.76932 7.68757 3.00017L1.68757 13.5002C1.55533 13.7292 1.48599 13.9891 1.48658 14.2536C1.48716 14.518 1.55765 14.7776 1.6909 15.006C1.82416 15.2345 2.01543 15.4236 2.24534 15.5543C2.47525 15.685 2.73562 15.7525 3.00007 15.7502H15.0001C15.2632 15.7499 15.5217 15.6804 15.7495 15.5486C15.9773 15.4169 16.1665 15.2275 16.298 14.9995C16.4294 14.7715 16.4986 14.513 16.4985 14.2498C16.4985 13.9866 16.4292 13.7281 16.2976 13.5002Z" stroke="#60A5FA" stroke-width="1.5" stroke-linecap="round" stroke-linejoin="round"/>
<path d="M9 6.75V9.75" stroke="#1D74F7" stroke-width="1.5" stroke-linecap="round" stroke-linejoin="round"/>
<path d="M9 12.75H9.0075" stroke="#1D74F7" stroke-width="1.5" stroke-linecap="round" stroke-linejoin="round"/>
</svg>
