<svg width="72" height="72" viewBox="0 0 72 72" fill="none" xmlns="http://www.w3.org/2000/svg">
<path d="M0 16C0 7.16344 7.16344 0 16 0H56C64.8366 0 72 7.16344 72 16V56C72 64.8366 64.8366 72 56 72H16C7.16344 72 0 64.8366 0 56V16Z" fill="#68846E"/>
<path d="M48.668 33.3333C49.2769 36.3217 48.8429 39.4286 47.4385 42.1357C46.034 44.8429 43.7438 46.9867 40.95 48.2097C38.1562 49.4328 35.0275 49.661 32.0857 48.8565C29.1439 48.0519 26.5669 46.2632 24.7844 43.7885C23.0018 41.3139 22.1215 38.303 22.2902 35.2578C22.4589 32.2127 23.6665 29.3174 25.7115 27.0549C27.7565 24.7923 30.5154 23.2992 33.5281 22.8246C36.5407 22.35 39.625 22.9225 42.2667 24.4467" stroke="#0B4721" stroke-width="2.66667" stroke-linecap="round" stroke-linejoin="round"/>
<path d="M31.6001 34.6663L35.6001 38.6663L48.9334 25.333" stroke="#0B4721" stroke-width="2.66667" stroke-linecap="round" stroke-linejoin="round"/>
</svg>
