<svg width="18" height="18" viewBox="0 0 18 18" fill="none" xmlns="http://www.w3.org/2000/svg">
<g clip-path="url(#clip0_2_1586)">
<path d="M16.2976 13.5L10.2976 2.99999C10.1667 2.76914 9.97702 2.57713 9.74776 2.44354C9.5185 2.30995 9.25791 2.23956 8.99257 2.23956C8.72723 2.23956 8.46664 2.30995 8.23738 2.44354C8.00812 2.57713 7.8184 2.76914 7.68757 2.99999L1.68757 13.5C1.55533 13.729 1.48599 13.9889 1.48658 14.2534C1.48716 14.5178 1.55765 14.7774 1.6909 15.0059C1.82416 15.2343 2.01543 15.4234 2.24534 15.5541C2.47525 15.6848 2.73562 15.7524 3.00007 15.75H15.0001C15.2632 15.7497 15.5217 15.6802 15.7495 15.5484C15.9773 15.4167 16.1665 15.2273 16.298 14.9993C16.4294 14.7713 16.4986 14.5128 16.4985 14.2496C16.4985 13.9864 16.4292 13.7279 16.2976 13.5Z" stroke="#1D74F7" stroke-width="1.5" stroke-linecap="round" stroke-linejoin="round"/>
<path d="M9 6.75V9.75" stroke="#1D74F7" stroke-width="1.5" stroke-linecap="round" stroke-linejoin="round"/>
<path d="M9 12.75H9.0075" stroke="#1D74F7" stroke-width="1.5" stroke-linecap="round" stroke-linejoin="round"/>
</g>
<defs>
<clipPath id="clip0_2_1586">
<rect width="18" height="18" fill="white"/>
</clipPath>
</defs>
</svg>
