<svg width="13" height="13" viewBox="0 0 13 13" fill="none" xmlns="http://www.w3.org/2000/svg">
<g clip-path="url(#clip0_2_2007)">
<path d="M11.4693 3.68984C11.7556 3.40352 11.9166 3.01517 11.9166 2.61022C11.9167 2.20526 11.7558 1.81687 11.4695 1.53048C11.1832 1.2441 10.7949 1.08318 10.3899 1.08313C9.98495 1.08308 9.59656 1.2439 9.31017 1.53021L2.08109 8.76092C1.95532 8.88632 1.86232 9.04071 1.81026 9.2105L1.09471 11.5678C1.08071 11.6147 1.07966 11.6644 1.09165 11.7118C1.10365 11.7592 1.12825 11.8025 1.16285 11.837C1.19745 11.8716 1.24076 11.8961 1.28817 11.908C1.33559 11.92 1.38535 11.9188 1.43217 11.9048L3.79005 11.1898C3.95968 11.1382 4.11406 11.0457 4.23963 10.9205L11.4693 3.68984Z" stroke="#1A1A2E" stroke-width="1.08333" stroke-linecap="round" stroke-linejoin="round"/>
<path d="M8.125 2.70831L10.2917 4.87498" stroke="#1A1A2E" stroke-width="1.08333" stroke-linecap="round" stroke-linejoin="round"/>
</g>
<defs>
<clipPath id="clip0_2_2007">
<rect width="13" height="13" fill="white"/>
</clipPath>
</defs>
</svg>
