<svg width="72" height="72" viewBox="0 0 72 72" fill="none" xmlns="http://www.w3.org/2000/svg">
<path d="M0 16C0 7.16344 7.16344 0 16 0H56C64.8366 0 72 7.16344 72 16V56C72 64.8366 64.8366 72 56 72H16C7.16344 72 0 64.8366 0 56V16Z" fill="#DCFCE7"/>
<path d="M49.068 33.3333C49.6769 36.3217 49.243 39.4286 47.8385 42.1357C46.434 44.8429 44.1439 46.9867 41.35 48.2097C38.5562 49.4328 35.4275 49.661 32.4857 48.8565C29.544 48.0519 26.9669 46.2632 25.1844 43.7885C23.4018 41.3139 22.5215 38.303 22.6902 35.2578C22.859 32.2127 24.0665 29.3174 26.1115 27.0549C28.1566 24.7923 30.9155 23.2992 33.9281 22.8246C36.9407 22.35 40.0251 22.9225 42.6667 24.4467" stroke="#16A34A" stroke-width="2.66667" stroke-linecap="round" stroke-linejoin="round"/>
<path d="M32 34.6666L36 38.6666L49.3333 25.3333" stroke="#16A34A" stroke-width="2.66667" stroke-linecap="round" stroke-linejoin="round"/>
</svg>
