<svg width="28" height="28" viewBox="0 0 28 28" fill="none" xmlns="http://www.w3.org/2000/svg">
<path d="M0 10C0 4.47715 4.47715 0 10 0H18C23.5228 0 28 4.47715 28 10V18C28 23.5228 23.5228 28 18 28H10C4.47715 28 0 23.5228 0 18V10Z" fill="#EEEEF8"/>
<g clip-path="url(#clip0_2_1824)">
<path d="M17.7918 15.0833C18.5989 14.2925 19.4168 13.3446 19.4168 12.1042C19.4168 11.314 19.103 10.5563 18.5443 9.99758C17.9856 9.43888 17.2278 9.125 16.4377 9.125C15.4843 9.125 14.8127 9.39583 14.0002 10.2083C13.1877 9.39583 12.516 9.125 11.5627 9.125C10.7725 9.125 10.0148 9.43888 9.45607 9.99758C8.89737 10.5563 8.5835 11.314 8.5835 12.1042C8.5835 13.35 9.396 14.2979 10.2085 15.0833L14.0002 18.875L17.7918 15.0833Z" stroke="#F87171" stroke-width="1.08333" stroke-linecap="round" stroke-linejoin="round"/>
</g>
<defs>
<clipPath id="clip0_2_1824">
<rect width="13" height="13" fill="white" transform="translate(7.5 7.5)"/>
</clipPath>
</defs>
</svg>
