<svg width="18" height="18" viewBox="0 0 18 18" fill="none" xmlns="http://www.w3.org/2000/svg">
<path d="M16.2973 13.5002L10.2973 3.00017C10.1665 2.76932 9.97677 2.57731 9.74751 2.44372C9.51825 2.31013 9.25766 2.23975 8.99232 2.23975C8.72698 2.23975 8.46639 2.31013 8.23713 2.44372C8.00787 2.57731 7.81815 2.76932 7.68732 3.00017L1.68732 13.5002C1.55508 13.7292 1.48574 13.9891 1.48633 14.2536C1.48691 14.518 1.5574 14.7776 1.69065 15.0061C1.82391 15.2345 2.01518 15.4236 2.24509 15.5543C2.475 15.685 2.73538 15.7526 2.99982 15.7502H14.9998C15.263 15.7499 15.5214 15.6804 15.7493 15.5487C15.9771 15.4169 16.1662 15.2275 16.2977 14.9995C16.4292 14.7716 16.4983 14.513 16.4983 14.2498C16.4982 13.9866 16.4289 13.7281 16.2973 13.5002Z" stroke="#E0E7FF" stroke-width="1.5" stroke-linecap="round" stroke-linejoin="round"/>
<path d="M9 6.75V9.75" stroke="#E0E7FF" stroke-width="1.5" stroke-linecap="round" stroke-linejoin="round"/>
<path d="M9 12.75H9.0075" stroke="#E0E7FF" stroke-width="1.5" stroke-linecap="round" stroke-linejoin="round"/>
</svg>
