<svg width="72" height="72" viewBox="0 0 72 72" fill="none" xmlns="http://www.w3.org/2000/svg">
<path d="M0 16C0 7.16344 7.16344 0 16 0H56C64.8366 0 72 7.16344 72 16V56C72 64.8366 64.8366 72 56 72H16C7.16344 72 0 64.8366 0 56V16Z" fill="#0D2818"/>
<path d="M49.0681 33.3333C49.677 36.3217 49.2431 39.4286 47.8386 42.1357C46.4341 44.8429 44.144 46.9867 41.3501 48.2098C38.5563 49.4328 35.4276 49.661 32.4858 48.8565C29.5441 48.0519 26.9671 46.2632 25.1845 43.7886C23.4019 41.3139 22.5216 38.303 22.6904 35.2578C22.8591 32.2127 24.0666 29.3174 26.1117 27.0549C28.1567 24.7923 30.9155 23.2992 33.9282 22.8246C36.9408 22.35 40.0251 22.9225 42.6668 24.4467" stroke="#16A34A" stroke-width="2.66667" stroke-linecap="round" stroke-linejoin="round"/>
<path d="M32 34.6666L36 38.6666L49.3333 25.3333" stroke="#16A34A" stroke-width="2.66667" stroke-linecap="round" stroke-linejoin="round"/>
</svg>
