<svg width="72" height="72" viewBox="0 0 72 72" fill="none" xmlns="http://www.w3.org/2000/svg">
<path d="M0 16C0 7.16344 7.16344 0 16 0H56C64.8366 0 72 7.16344 72 16V56C72 64.8366 64.8366 72 56 72H16C7.16344 72 0 64.8366 0 56V16Z" fill="#252529"/>
<path d="M35.9998 33.5C35.3368 33.5 34.7009 33.7634 34.232 34.2322C33.7632 34.7011 33.4998 35.337 33.4998 36C33.4998 37.275 33.3748 39.1375 33.1748 41" stroke="#1D74F7" stroke-width="2.5" stroke-linecap="round" stroke-linejoin="round"/>
<path d="M38.5 37.4C38.5 40.375 38.5 45.375 37.25 48.5" stroke="#1D74F7" stroke-width="2.5" stroke-linecap="round" stroke-linejoin="round"/>
<path d="M42.6123 47.275C42.7623 46.525 43.1498 44.4 43.2373 43.5" stroke="#1D74F7" stroke-width="2.5" stroke-linecap="round" stroke-linejoin="round"/>
<path d="M23.5 36C23.5 33.3765 24.3255 30.8194 25.8595 28.6911C27.3935 26.5628 29.5583 24.9711 32.0472 24.1415C34.5361 23.3118 37.2229 23.2863 39.7271 24.0686C42.2313 24.8508 44.4259 26.4012 46 28.5" stroke="#1D74F7" stroke-width="2.5" stroke-linecap="round" stroke-linejoin="round"/>
<path d="M23.5 41H23.5125" stroke="#1D74F7" stroke-width="2.5" stroke-linecap="round" stroke-linejoin="round"/>
<path d="M48.25 41C48.5 38.5 48.4137 34.3075 48.25 33.5" stroke="#1D74F7" stroke-width="2.5" stroke-linecap="round" stroke-linejoin="round"/>
<path d="M27.25 45.375C27.875 43.5 28.5 39.75 28.5 36C28.4987 35.1486 28.6425 34.3032 28.925 33.5" stroke="#1D74F7" stroke-width="2.5" stroke-linecap="round" stroke-linejoin="round"/>
<path d="M31.8125 48.5C32.075 47.675 32.375 46.85 32.525 46" stroke="#1D74F7" stroke-width="2.5" stroke-linecap="round" stroke-linejoin="round"/>
<path d="M32.25 29.5C33.3905 28.8416 34.6843 28.495 36.0012 28.4952C37.3181 28.4954 38.6118 28.8424 39.7521 29.5012C40.8924 30.1601 41.8391 31.1075 42.497 32.2483C43.1549 33.3891 43.5008 34.6831 43.5 36V38.5" stroke="#1D74F7" stroke-width="2.5" stroke-linecap="round" stroke-linejoin="round"/>
</svg>
