<svg width="28" height="28" viewBox="0 0 28 28" fill="none" xmlns="http://www.w3.org/2000/svg">
<path d="M0 10C0 4.47715 4.47715 0 10 0H18C23.5228 0 28 4.47715 28 10V18C28 23.5228 23.5228 28 18 28H10C4.47715 28 0 23.5228 0 18V10Z" fill="#252529"/>
<g clip-path="url(#clip0_13_1656)">
<path d="M17.7914 15.0833C18.5985 14.2925 19.4164 13.3446 19.4164 12.1042C19.4164 11.314 19.1025 10.5563 18.5438 9.99758C17.9851 9.43888 17.2273 9.125 16.4372 9.125C15.4838 9.125 14.8122 9.39583 13.9997 10.2083C13.1872 9.39583 12.5155 9.125 11.5622 9.125C10.7721 9.125 10.0143 9.43888 9.45559 9.99758C8.89689 10.5563 8.58301 11.314 8.58301 12.1042C8.58301 13.35 9.39551 14.2979 10.208 15.0833L13.9997 18.875L17.7914 15.0833Z" stroke="#F87171" stroke-width="1.08333" stroke-linecap="round" stroke-linejoin="round"/>
</g>
<defs>
<clipPath id="clip0_13_1656">
<rect width="13" height="13" fill="white" transform="translate(7.5 7.5)"/>
</clipPath>
</defs>
</svg>
